HIERARCHY
ROOT Hips
{
	OFFSET 0.000000 0.000000 0.000000
	CHANNELS 6 Xposition Yposition Zposition Zrotation Yrotation Xrotation 
	JOINT LHipJoint
	{
		OFFSET 0.000000 0.000000 0.000000
		CHANNELS 3 Zrotation Yrotation Xrotation
		JOINT LeftUpLeg
		{
			OFFSET 1.363060 -1.794630 0.839290
			CHANNELS 3 Zrotation Yrotation Xrotation
			JOINT LeftLeg
			{
				OFFSET 2.448110 -6.726130 0.000000
				CHANNELS 3 Zrotation Yrotation Xrotation
				JOINT LeftFoot
				{
					OFFSET 2.562200 -7.039590 0.000000
					CHANNELS 3 Zrotation Yrotation Xrotation
					JOINT LeftToeBase
					{
						OFFSET 0.157640 -0.433110 2.322550
						CHANNELS 3 Zrotation Yrotation Xrotation
						End Site
						{
							OFFSET 0.000000 0.000000 0.000000
						}
					}
				}
			}
		}
	}
	JOINT RHipJoint
	{
		OFFSET 0.000000 0.000000 0.000000
		CHANNELS 3 Zrotation Yrotation Xrotation
		JOINT RightUpLeg
		{
			OFFSET -1.305520 -1.794630 0.839290
			CHANNELS 3 Zrotation Yrotation Xrotation
			JOINT RightLeg
			{
				OFFSET -2.542530 -6.985550 0.000000
				CHANNELS 3 Zrotation Yrotation Xrotation
				JOINT RightFoot
				{
					OFFSET -2.568260 -7.056230 0.000000
					CHANNELS 3 Zrotation Yrotation Xrotation
					JOINT RightToeBase
					{
						OFFSET -0.164730 -0.452590 2.363150
						CHANNELS 3 Zrotation Yrotation Xrotation
						End Site
						{
							OFFSET 0.000000 0.000000 0.000000
						}
					}
				}
			}
		}
	}
	JOINT LowerBack
	{
		OFFSET 0.000000 0.000000 0.000000
		CHANNELS 3 Zrotation Yrotation Xrotation
		JOINT Spine
		{
			OFFSET 0.028270 2.035590 -0.193380
			CHANNELS 3 Zrotation Yrotation Xrotation
			JOINT Spine1
			{
				OFFSET 0.056720 2.048850 -0.042750
				CHANNELS 3 Zrotation Yrotation Xrotation
				JOINT Neck
				{
					OFFSET 0.000000 0.000000 0.000000
					CHANNELS 3 Zrotation Yrotation Xrotation
					JOINT Neck1
					{
						OFFSET -0.054170 1.746240 0.172020
						CHANNELS 3 Zrotation Yrotation Xrotation
						JOINT Head
						{
							OFFSET 0.104070 1.761360 -0.123970
							CHANNELS 3 Zrotation Yrotation Xrotation
							End Site
							{
								OFFSET 0.000000 0.000000 0.000000
							}
						}
					}
				}
				JOINT LeftShoulder
				{
					OFFSET 0.000000 0.000000 0.000000
					CHANNELS 3 Zrotation Yrotation Xrotation
					JOINT LeftArm
					{
						OFFSET 3.362410 1.200890 -0.311210
						CHANNELS 3 Zrotation Yrotation Xrotation
						JOINT LeftForeArm
						{
							OFFSET 4.983000 -0.000000 -0.000000
							CHANNELS 3 Zrotation Yrotation Xrotation
							JOINT LeftHand
							{
								OFFSET 3.483560 -0.000000 -0.000000
								CHANNELS 3 Zrotation Yrotation Xrotation
								JOINT LeftFingerBase
								{
									OFFSET 0.000000 0.000000 0.000000
									CHANNELS 3 Zrotation Yrotation Xrotation
									JOINT LeftHandIndex1
									{
										OFFSET 0.715260 -0.000000 -0.000000
										CHANNELS 3 Zrotation Yrotation Xrotation
										End Site
										{
											OFFSET 0.000000 0.000000 0.000000
										}
									}
								}
								JOINT LThumb
								{
									OFFSET 0.000000 0.000000 0.000000
									CHANNELS 3 Zrotation Yrotation Xrotation
									End Site
									{
										OFFSET 0.000000 0.000000 0.000000
									}
								}
							}
						}
					}
				}
				JOINT RightShoulder
				{
					OFFSET 0.000000 0.000000 0.000000
					CHANNELS 3 Zrotation Yrotation Xrotation
					JOINT RightArm
					{
						OFFSET -3.136600 1.374050 -0.404650
						CHANNELS 3 Zrotation Yrotation Xrotation
						JOINT RightForeArm
						{
							OFFSET -5.241900 -0.000000 -0.000000
							CHANNELS 3 Zrotation Yrotation Xrotation
							JOINT RightHand
							{
								OFFSET -3.444170 -0.000000 -0.000000
								CHANNELS 3 Zrotation Yrotation Xrotation
								JOINT RightFingerBase
								{
									OFFSET 0.000000 0.000000 0.000000
									CHANNELS 3 Zrotation Yrotation Xrotation
									JOINT RightHandIndex1
									{
										OFFSET -0.622530 -0.000000 -0.000000
										CHANNELS 3 Zrotation Yrotation Xrotation
										End Site
										{
											OFFSET 0.000000 0.000000 0.000000
										}
									}
								}
								JOINT RThumb
								{
									OFFSET 0.000000 0.000000 0.000000
									CHANNELS 3 Zrotation Yrotation Xrotation
									End Site
									{
										OFFSET 0.000000 0.000000 0.000000
									}
								}
							}
						}
					}
				}
			}
		}
	}
}
MOTION
Frames: 11
Frame Time: 0.008333
1.102875 17.863432 -7.997352 -6.281211 -6.206498 10.127469 -2.686261 -0.482422 0.350912 -8.616378 -3.529285 -22.696839 2.194910 11.694155 34.139519 0.072401 2.523299 -9.895414 0.083800 -1.866800 -5.137800 5.267739 1.448139 0.530241 16.763103 7.379605 -17.017354 -2.374413 -10.292590 29.497613 0.022904 -2.674529 -9.710184 -0.012700 -0.727500 1.999400 -1.630107 -0.115216 -4.623812 5.935612 0.133490 0.317101 5.202460 0.061268 2.265879 -1.784204 -2.856464 -18.480608 -0.578440 -2.019080 31.009471 -2.123200 -0.779900 17.117800 0.543394 5.408312 -1.225336 -92.052697 -3.849718 35.053607 12.167711 -21.941768 -1.848572 1.005552 0.422702 0.801006 14.350141 30.267098 6.758200 -7.125000 0.000000 0.000000 -20.391100 59.452300 -7.385400 0.113889 -3.848540 -1.331680 85.414883 2.585724 30.578770 -15.239839 26.518389 -3.231019 0.110303 0.247187 -11.145666 -21.265901 11.916284 -4.536100 7.125000 0.000000 0.000000 4.011300 -17.493200 2.626500 
1.097658 17.871058 -8.001466 -6.316337 -6.152973 10.198476 -2.677266 -0.489214 0.341675 -8.570381 -3.492874 -22.798044 2.190880 11.690196 34.114847 0.071018 2.506847 -9.811109 0.102600 -2.065700 -5.687200 5.272022 1.455011 0.537947 16.803565 7.231388 -17.089123 -2.344386 -10.237192 29.325395 0.002894 -2.512327 -9.508184 -0.020100 -0.915400 2.516100 -1.543265 -0.081195 -4.717750 6.000422 0.173881 0.356903 5.184136 0.082012 2.344559 -1.720273 -2.619545 -18.512104 -0.612698 -1.653571 31.314836 -2.088100 -0.624600 17.310600 0.540289 5.408997 -1.229163 -92.050619 -3.993597 35.326800 12.278140 -22.129038 -1.892692 1.004709 0.421731 0.520785 14.569096 30.202377 6.859800 -7.125000 0.000000 0.000000 -20.120400 59.448900 -7.280700 0.111831 -3.847748 -1.335705 85.336905 2.765562 30.656003 -15.276372 26.573602 -3.248225 0.109916 0.245705 -11.148368 -21.236365 11.827476 -4.495800 7.125000 0.000000 0.000000 4.029600 -17.588600 2.630100 
1.091538 17.872563 -8.004476 -6.382252 -6.101263 10.274184 -2.670079 -0.493568 0.333504 -8.455849 -3.613045 -22.837215 2.184118 11.682548 34.079814 0.048626 2.583348 -9.724311 0.105500 -2.094800 -5.767600 5.277424 1.456702 0.540584 16.879594 7.215527 -17.163646 -2.338929 -10.218667 29.281776 -0.024279 -2.351746 -9.466324 -0.035600 -1.218500 3.350200 -1.412302 -0.043117 -4.860880 6.050890 0.213291 0.412417 5.134082 0.104797 2.460486 -1.588828 -2.385714 -18.327891 -0.739701 -1.329163 31.372566 -2.112000 -0.493700 17.320200 0.539980 5.393469 -1.232938 -92.047325 -4.193000 35.579486 12.334702 -22.229659 -1.918532 1.004490 0.416780 0.078945 14.940083 29.977271 7.007000 -7.125000 0.000000 0.000000 -19.579600 59.336700 -7.022500 0.113467 -3.860921 -1.345062 85.299115 2.904940 30.739859 -15.325455 26.646009 -3.271217 0.110534 0.243114 -11.113157 -21.166606 11.742471 -4.448600 7.125000 0.000000 0.000000 4.075800 -17.682000 2.652100 
1.082809 17.873165 -8.006081 -6.385679 -5.964692 10.256768 -2.673180 -0.490943 0.335311 -8.375182 -3.832248 -22.752984 2.177396 11.671541 34.047846 0.061108 2.526134 -9.723434 0.072400 -1.736400 -4.777800 5.283870 1.454401 0.549981 16.923659 7.194895 -17.124976 -2.327949 -10.205324 29.232071 -0.007695 -2.468228 -9.559158 -0.018300 -0.873100 2.399600 -1.371738 -0.028794 -4.968077 6.081971 0.223080 0.505905 5.130128 0.110661 2.570935 -1.466185 -2.185549 -18.236164 -0.844583 -1.039258 31.585191 -2.131500 -0.371400 17.437500 0.539541 5.384415 -1.237805 -92.051519 -4.344565 35.775847 12.391893 -22.333636 -1.949948 1.002316 0.404280 -0.355968 15.360583 29.527797 7.131000 -7.125000 0.000000 0.000000 -18.832000 59.029300 -6.602700 0.114712 -3.866417 -1.354191 85.266664 2.966846 30.842358 -15.386960 26.732545 -3.295041 0.112469 0.243371 -11.048087 -21.239498 11.847654 -4.505600 7.125000 0.000000 0.000000 4.027000 -17.564100 2.630600 
1.072474 17.874268 -8.007386 -6.359351 -5.773193 10.185495 -2.679421 -0.488368 0.343387 -8.325739 -3.949613 -22.671661 2.175582 11.662064 34.028787 0.113981 2.297829 -9.761118 0.051700 -1.467100 -4.035100 5.281859 1.452561 0.566170 16.975663 7.045232 -17.101647 -2.324171 -10.207767 29.225214 0.004576 -2.565983 -9.665607 -0.005700 -0.489700 1.345500 -1.326746 0.008720 -5.063687 6.015006 0.254711 0.660138 5.090490 0.127132 2.693555 -1.190306 -2.024724 -18.278230 -0.980652 -0.853720 31.808409 -2.211000 -0.273200 17.590100 0.541258 5.372843 -1.248192 -91.931197 -4.528474 36.135733 12.506748 -22.528676 -1.999106 0.999254 0.405114 -0.754934 15.531939 29.381306 7.188100 -7.125000 0.000000 0.000000 -18.553900 58.935900 -6.459000 0.119288 -3.874533 -1.362470 85.336589 3.056682 30.843922 -15.419733 26.776568 -3.304712 0.113102 0.246043 -10.876366 -21.437805 11.950457 -4.589600 7.125000 0.000000 0.000000 3.891200 -17.440800 2.551900 
1.062942 17.875773 -8.008088 -6.389410 -5.613835 10.149782 -2.678959 -0.491936 0.337659 -8.250438 -3.895472 -22.667867 2.175005 11.656499 34.008099 0.157455 2.100232 -9.744586 0.060600 -1.588600 -4.369900 5.273871 1.454416 0.563631 17.085726 6.946268 -17.078066 -2.323330 -10.211953 29.227000 0.010094 -2.610901 -9.712948 -0.004900 -0.452900 1.244400 -1.128238 0.072915 -4.770117 5.878075 0.337891 0.466202 4.918837 0.170859 2.439386 -0.866876 -1.867800 -18.207586 -1.078322 -0.702131 32.094079 -2.285000 -0.171900 17.732600 0.545400 5.368391 -1.247817 -91.668821 -4.364401 36.514424 12.681731 -22.815603 -2.063229 0.997887 0.421802 -1.055852 15.504373 29.692453 7.240200 -7.125000 0.000000 0.000000 -18.796400 59.214300 -6.673500 0.129530 -3.884317 -1.353243 85.485487 2.884175 30.807861 -15.417299 26.771377 -3.301525 0.113419 0.248513 -10.754683 -21.546387 11.992287 -4.630000 7.125000 0.000000 0.000000 3.816300 -17.389800 2.506900 
1.052809 17.876074 -8.009091 -6.388542 -5.500037 10.089881 -2.676002 -0.491201 0.338977 -8.230095 -3.756497 -22.685814 2.176772 11.653277 33.998816 0.171803 1.999436 -9.613976 0.072300 -1.735000 -4.773900 5.269894 1.452942 0.565369 17.149747 6.913961 -17.010454 -2.322033 -10.216008 29.228027 0.025766 -2.706733 -9.748094 -0.004600 -0.438100 1.203700 -1.015281 0.133180 -4.601107 5.812582 0.415280 0.395348 4.826175 0.210259 2.310996 -0.737949 -1.739570 -18.080992 -1.097974 -0.541698 32.296871 -2.287600 -0.085700 17.822100 0.547544 5.368040 -1.250433 -91.549194 -4.327310 36.749414 12.820412 -23.038003 -2.109386 0.997820 0.440639 -1.197511 15.366503 30.154444 7.266200 -7.125000 0.000000 0.000000 -19.266700 59.603800 -7.028900 0.135279 -3.888852 -1.350423 85.542942 2.849178 30.742301 -15.397402 26.743332 -3.291460 0.114828 0.250570 -10.699825 -21.578521 12.083554 -4.672300 7.125000 0.000000 0.000000 3.796100 -17.291900 2.501700 
1.042575 17.875773 -8.010295 -6.361812 -5.399511 10.063006 -2.671530 -0.493061 0.337861 -8.218157 -3.698486 -22.705084 2.178474 11.651104 33.994619 0.189207 1.898431 -9.535961 0.073300 -1.746500 -4.805700 5.265540 1.457764 0.574016 17.180090 6.710319 -17.057805 -2.320916 -10.217240 29.223679 0.009783 -2.613796 -9.717107 -0.005300 -0.472200 1.297500 -1.000739 0.161513 -4.583444 5.814353 0.451624 0.405308 4.819729 0.228361 2.307979 -0.680334 -1.607642 -17.949121 -1.135671 -0.346342 32.459202 -2.280700 -0.000500 17.896600 0.546865 5.364593 -1.252303 -91.546514 -4.391182 36.793586 12.928483 -23.216397 -2.154838 0.993570 0.444466 -1.252166 15.200754 30.171573 7.184200 -7.125000 0.000000 0.000000 -19.446700 59.577800 -7.085500 0.138101 -3.892606 -1.354583 85.504091 2.856622 30.811166 -15.435099 26.798409 -3.308544 0.115880 0.249035 -10.751608 -21.518378 12.088911 -4.661200 7.125000 0.000000 0.000000 3.837600 -17.289500 2.529400 
1.033544 17.875472 -8.009994 -6.347830 -5.325887 10.082147 -2.664890 -0.497312 0.332353 -8.191190 -3.695390 -22.730516 2.178310 11.648237 33.985186 0.224649 1.745863 -9.560777 0.065400 -1.649600 -4.538100 5.263276 1.465587 0.579676 17.206973 6.485925 -17.163776 -2.320632 -10.216753 29.219442 -0.003774 -2.521443 -9.640998 -0.002400 -0.314900 0.865300 -1.026108 0.159425 -4.593523 5.878272 0.453594 0.389605 4.860476 0.229912 2.314136 -0.627596 -1.444297 -17.861321 -1.223815 -0.087542 32.604976 -2.286100 0.099400 17.978100 0.543537 5.357368 -1.249692 -91.595086 -4.378629 36.743432 13.039828 -23.404617 -2.211306 0.987567 0.432481 -1.329624 15.243859 29.768854 7.124700 -7.125000 0.000000 0.000000 -19.109500 59.220200 -6.792500 0.137368 -3.898093 -1.359783 85.399107 2.828182 30.983468 -15.499023 26.891255 -3.339429 0.116445 0.244734 -10.811487 -21.378220 11.982225 -4.589300 7.125000 0.000000 0.000000 3.932000 -17.410300 2.581500 
1.025417 17.875673 -8.007185 -6.328447 -5.329209 10.068876 -2.661167 -0.495046 0.335535 -8.202361 -3.615502 -22.735217 2.178094 11.645223 33.978721 0.238855 1.682734 -9.563051 0.065200 -1.647300 -4.531900 5.266639 1.464068 0.581172 17.211135 6.506428 -17.119696 -2.318774 -10.217229 29.214552 0.012641 -2.611775 -9.641724 -0.000100 -0.074100 0.203700 -1.063226 0.183195 -4.579543 5.949243 0.489471 0.399770 4.911002 0.248771 2.313771 -0.590129 -1.299105 -17.828632 -1.329178 0.157139 32.736694 -2.300200 0.188100 18.065700 0.540110 5.350932 -1.249368 -91.643872 -4.379127 36.811210 13.149980 -23.580124 -2.253216 0.986734 0.437528 -1.462932 15.261455 29.908422 7.163600 -7.125000 0.000000 0.000000 -19.190900 59.354000 -6.884600 0.133228 -3.903978 -1.364151 85.290386 2.848814 31.107373 -15.480889 26.864660 -3.332908 0.115433 0.243974 -10.804362 -21.345389 11.904888 -4.552000 7.125000 0.000000 0.000000 3.953200 -17.494900 2.588100 
1.018595 17.875974 -8.004877 -6.311060 -5.361447 10.056497 -2.661431 -0.493244 0.338107 -8.212842 -3.551867 -22.732921 2.178701 11.644719 33.978806 0.232329 1.700020 -9.520240 0.073900 -1.754000 -4.826300 5.267641 1.460564 0.580344 17.211671 6.572293 -17.053089 -2.313891 -10.211954 29.192160 0.023383 -2.673083 -9.652931 0.000000 -0.032900 0.090400 -1.017141 0.252795 -4.535021 5.931082 0.580717 0.378235 4.878236 0.295241 2.277351 -0.541093 -1.211324 -17.729638 -1.384234 0.292141 32.836028 -2.311300 0.244200 18.108800 0.540611 5.347547 -1.249878 -91.656141 -4.434471 36.835872 13.199310 -23.653974 -2.262778 0.989163 0.451666 -1.452400 15.142358 30.350622 7.192800 -7.125000 0.000000 0.000000 -19.635700 59.729500 -7.229300 0.134281 -3.908906 -1.365355 85.247488 2.851845 31.178033 -15.429197 26.787379 -3.310633 0.113052 0.245298 -10.787283 -21.389343 11.828350 -4.531600 7.125000 0.000000 0.000000 3.921300 -17.574400 2.560300 
